# xmcd
#
# Track frame offsets:
#	150
#	20543
#	36883
#	53488
#	66492
#	88045
#	112626
#	133261
#	149490
#	167971
#
# Disc length: 2423 seconds
#
# Revision: 2
# Processed by: cddbd v1.4PL0 Copyright (c) Steve Scherf et al.
# Submitted via: audiograbber 1.81.03
#
DISCID=8b09750a
DTITLE=Various Artist - A Celebration of Blues-Great Party Blues
DYEAR=1900
DGENRE=
TTITLE0=I'm In the Mood for Blues-Ernie Johnson
TTITLE1=Pop It Baby-Mel Waiters
TTITLE2=Bump and Grind-Denise LaSalle
TTITLE3=Baby Let Me KIss You-King Floyd
TTITLE4=Workin' Is the Curse-Mike Griffin
TTITLE5=Ley It Roll-Poonanny
TTITLE6=Tear the House Down-The Beat Daddys
TTITLE7=Wives Night Out-Cicero Blake
TTITLE8=Friday Is My Day-z.z. Hill
TTITLE9=Mr. Music Man-McKinley Mitchell
EXTD=
EXTT0=
EXTT1=
EXTT2=
EXTT3=
EXTT4=
EXTT5=
EXTT6=
EXTT7=
EXTT8=
EXTT9=
PLAYORDER=
